PathFileType	4	(X/Y/Z)	C:\Users\Admin\Desktop\Capture Files\05302019 Reflex Trials\StaticTrial_1-Unnamed.trc
DataRate	CameraRate	NumFrames	NumMarkers	Units	OrigDataRate	OrigDataStartFrame	OrigNumFrames
300.00	300.00	      22	0	mm	300.00	711	      1137
Frame#	Time	
		

711	2.367	579.22357	-624.24365	918.14813				497.94724	-499.44873	874.66803	896.01270	-724.53345	1115.72449	432.08469	-312.75940	455.68353	179.96222	-512.66510	611.05310	158.02919	-529.01172	409.44940	822.63690	-765.81335	1021.50708	290.93210	-499.38016	729.69086				182.77339	-589.08997	725.01935	370.82983	-425.47150	715.04517	499.80447	-364.92484	739.33087				428.51706	-327.13889	639.96198	
712	2.370	579.24524	-624.22241	918.14783	861.84698	-846.37177	1272.12036	497.93335	-499.44272	874.67450	895.95734	-724.45093	1115.70703	432.08768	-312.76492	455.69446	179.94794	-512.65558	611.07135	158.03056	-529.01453	409.45966	822.67523	-765.85236	1021.52295	290.95053	-499.37216	729.70416				182.78058	-589.05688	725.02673	370.81845	-425.47330	715.04285	499.80463	-364.90436	739.32507				428.48209	-327.11606	639.95728	
713	2.373	579.24078	-624.22858	918.15253				497.92920	-499.42728	874.66449	895.91089	-724.44293	1115.67529	432.07504	-312.76089	455.69470	179.97029	-512.69275	611.06091	158.03993	-529.01550	409.43137	822.62787	-765.76337	1021.49768	290.94949	-499.37534	729.68707				182.77672	-589.08527	725.01776	370.82419	-425.46509	715.03375	499.79568	-364.90356	739.31769				428.47168	-327.10068	639.96045	
714	2.377	579.23871	-624.21301	918.13141				497.93555	-499.43433	874.66113	895.96912	-724.42651	1115.69812	432.08966	-312.75870	455.70187	179.95552	-512.65558	611.06409	158.02968	-528.97882	409.45047	822.67090	-765.79340	1021.52020	290.94177	-499.38428	729.68707				182.76321	-589.07489	725.00958	370.81479	-425.45859	715.03491	499.80008	-364.89673	739.32220				428.49002	-327.12317	639.95764	
715	2.380	579.22473	-624.21130	918.15002				497.91974	-499.41165	874.66644	895.96106	-724.46967	1115.66150	432.07037	-312.75031	455.68707	179.97095	-512.68365	611.05054	158.04260	-528.98645	409.45477	822.67542	-765.78992	1021.49988	290.94275	-499.33200	729.69934				182.77324	-589.06335	725.01935	370.81342	-425.47073	715.03510	499.77747	-364.87595	739.31537				428.47128	-327.11490	639.94995	
716	2.383	579.23657	-624.22638	918.12988				497.91403	-499.39917	874.66174	895.99103	-724.51312	1115.64099	432.07730	-312.75861	455.67435	179.95581	-512.65179	611.06274	158.04643	-528.98981	409.44318	822.73755	-765.88525	1021.48358	290.93484	-499.38217	729.67059				182.76784	-589.07965	725.02142	370.82147	-425.46317	715.02411	499.80231	-364.89917	739.32758				428.48608	-327.13068	639.95544	
717	2.387	579.22925	-624.19305	918.13403				497.92892	-499.40485	874.66180	895.95294	-724.46124	1115.64502	432.08054	-312.74292	455.69180	179.96107	-512.66217	611.06213	158.03334	-528.98267	409.44806	822.71283	-765.83881	1021.48016	290.94409	-499.33853	729.68158				182.76532	-589.05481	725.00049	370.81702	-425.45486	715.03156	499.79440	-364.89871	739.30664				428.48639	-327.11624	639.94543	
718	2.390	579.23975	-624.18512	918.12646				497.94269	-499.41818	874.64087	895.98859	-724.44489	1115.62524	432.08652	-312.74280	455.68372	179.96274	-512.66205	611.06366	158.03593	-528.96472	409.43320	822.68787	-765.85400	1021.44098	290.92426	-499.34442	729.68463				182.77592	-589.06427	724.99384	370.81082	-425.45056	715.02179	499.80890	-364.88821	739.32275				428.46667	-327.09900	639.94537	
719	2.393	579.22607	-624.17438	918.13721				497.93127	-499.40326	874.65881	895.98230	-724.42633	1115.60388	432.07382	-312.75403	455.68320	179.96158	-512.63489	611.06580	158.04625	-528.96710	409.42157	822.73297	-765.86877	1021.48041	290.93582	-499.34491	729.67657				182.77094	-589.04901	725.01337	370.82272	-425.43463	715.02386	499.78894	-364.87808	739.31244				428.47980	-327.10077	639.94720	
720	2.397	579.23468	-624.20026	918.15234				497.92584	-499.40216	874.64166	896.03650	-724.51746	1115.60535	432.07990	-312.75092	455.66260	179.97194	-512.64044	611.05121	158.03313	-528.96722	409.45020	822.70697	-765.83356	1021.45685	290.14029	-498.74826	730.17627				182.77116	-589.05298	725.01147	370.82455	-425.44608	715.01508	499.79797	-364.86703	739.30981				428.45706	-327.10614	639.93964	
721	2.400	579.23376	-624.19489	918.12616				497.91220	-499.39847	874.64331	896.04449	-724.52545	1115.60999	432.06824	-312.72278	455.68933	179.96040	-512.64307	611.06195	158.02760	-528.95227	409.43494	822.74939	-765.86029	1021.43848	290.17612	-498.74396	730.18427				182.77591	-589.04730	724.99695	370.81888	-425.44388	715.01758	499.79865	-364.87085	739.30371				428.46973	-327.09366	639.93243	
722	2.403	579.25134	-624.19586	918.12250				497.91284	-499.37814	874.66541	896.01569	-724.49634	1115.61621	432.05545	-312.71881	455.68893	179.95770	-512.63745	611.06024	158.03264	-528.95624	409.43295	822.78571	-765.90454	1021.43738	290.93234	-499.34439	729.67627				182.78850	-589.04474	725.00458	370.80350	-425.45105	715.02606	499.77774	-364.88037	739.31293				428.47272	-327.09290	639.94012	
723	2.407	579.23590	-624.17584	918.12659	861.92645	-846.41565	1272.00061	497.91394	-499.37579	874.64801	896.04797	-724.52661	1115.59753	432.06070	-312.73123	455.68063	179.95578	-512.61108	611.06744	158.02972	-528.94867	409.43167	822.76379	-765.87720	1021.43427	290.94193	-499.33109	729.66644				182.78473	-589.04590	725.01379	370.81470	-425.44809	715.00995	499.79056	-364.88004	739.28925				428.45929	-327.09229	639.92981	
724	2.410	579.23010	-624.19250	918.13989				497.90045	-499.38339	874.66022	896.01672	-724.46582	1115.57214	432.05283	-312.73074	455.67804	179.96902	-512.62177	611.06024	158.03694	-528.93671	409.43506	822.72620	-765.83051	1021.40930	290.17535	-498.73535	730.18567				182.79449	-589.03931	724.99164	370.82281	-425.44061	715.00244	499.77100	-364.87302	739.30054				428.47778	-327.09415	639.93188	
725	2.413	579.23206	-624.18231	918.13220				497.89987	-499.36285	874.63831	896.04132	-724.49945	1115.54700	432.04553	-312.72769	455.67972	179.96577	-512.61963	611.05957	158.03636	-528.96301	409.42578	822.78857	-765.90912	1021.39386	290.95984	-499.32678	729.66528				182.77956	-589.02350	725.02283	370.80817	-425.43793	715.00055	499.79895	-364.86752	739.28638				428.45911	-327.09192	639.94446	
726	2.417	579.23242	-624.17798	918.12671				497.92807	-499.38400	874.63635	896.12421	-724.55066	1115.60120	432.04788	-312.71994	455.66339	179.95055	-512.62512	611.03937	158.02051	-528.93469	409.44519	822.87561	-765.95313	1021.37421	290.94882	-499.31787	729.66785				182.78627	-589.02057	725.00049	370.80237	-425.42700	715.02966	499.79398	-364.86115	739.28461				428.46829	-327.09488	639.91547	
727	2.420	579.24213	-624.18188	918.13873				497.90326	-499.37869	874.64868	896.08771	-724.55975	1115.55872	432.04584	-312.73560	455.65671	179.97495	-512.64972	611.05859	158.03252	-528.93018	409.42648	822.80450	-765.90710	1021.36053	290.18225	-498.72223	730.17914				182.80214	-589.02740	724.99634	370.81241	-425.42722	715.00696	499.78922	-364.87311	739.28387				428.46579	-327.10303	639.94128	
728	2.423	579.22992	-624.17401	918.13672				497.92642	-499.37991	874.62866	896.06488	-724.52148	1115.55212	432.04834	-312.71182	455.66217	179.95702	-512.62085	611.06335	158.02068	-528.90741	409.43146	822.84735	-765.95648	1021.36627	290.95349	-499.32187	729.65948				182.79515	-589.03510	725.01184	370.80502	-425.42249	715.02454	499.78961	-364.85663	739.29309				428.45920	-327.09308	639.91992	
729	2.427	579.23737	-624.17371	918.13599	862.14087	-846.66742	1271.93750	497.90732	-499.36337	874.63397	896.02527	-724.47980	1115.50305	432.03705	-312.72482	455.65451	179.96483	-512.62048	611.06708	158.02444	-528.91345	409.45087	822.80432	-765.90625	1021.37689	290.18546	-498.71521	730.18329				182.79652	-589.01349	725.01392	370.80789	-425.43921	715.01117	499.79471	-364.86151	739.28375				428.44263	-327.09103	639.91010	
730	2.430	579.24438	-624.15912	918.13501				497.92871	-499.38235	874.63605	896.07605	-724.52710	1115.54846	432.01773	-312.71823	455.65619	179.98697	-512.60602	611.05756	158.02357	-528.92273	409.44623	822.84186	-765.94318	1021.37866	290.20227	-498.72171	730.17175				182.79092	-589.01300	725.01263	370.81314	-425.43063	715.01672	499.79391	-364.84637	739.28882				428.43658	-327.08408	639.92450	
731	2.433	579.26807	-624.18024	918.10181				497.92450	-499.38971	874.63336	896.04669	-724.49042	1115.52722	432.02536	-312.72012	455.66446	179.97496	-512.60229	611.06842	158.02678	-528.90662	409.44128	822.76935	-765.85596	1021.34833	290.18527	-498.72284	730.16248				182.79498	-589.00336	725.02039	370.81876	-425.43893	715.00018	499.79175	-364.84924	739.27710				428.46158	-327.09613	639.91766	
732	2.437	579.24664	-624.17310	918.12488				497.93399	-499.39301	874.61572	896.11334	-724.52832	1115.50378	432.02859	-312.72113	455.67154	179.97624	-512.60388	611.08105	158.02505	-528.89557	409.44629	822.83075	-765.92157	1021.35925	290.17981	-498.70728	730.16583				182.80637	-589.02466	725.01556	370.81039	-425.42496	715.01007	499.79642	-364.85583	739.28461				428.46048	-327.09982	639.92316	
